<?xml version="1.0" standalone="no"?>
<!DOCTYPE svg PUBLIC "-//W3C//DTD SVG 20010904//EN"
 "http://www.w3.org/TR/2001/REC-SVG-20010904/DTD/svg10.dtd">
<svg version="1.0" xmlns="http://www.w3.org/2000/svg"
 width="49.000000pt" height="49.000000pt" viewBox="0 0 49.000000 49.000000"
 preserveAspectRatio="xMidYMid meet">

<g transform="translate(0.000000,49.000000) scale(0.100000,-0.100000)"
fill="#000000" stroke="none">
<path d="M191 476 c-28 -16 -50 -52 -51 -83 0 -20 -5 -23 -40 -23 -22 0 -40
-3 -40 -7 0 -5 -9 -84 -20 -178 -11 -94 -20 -173 -20 -177 0 -5 99 -8 220 -8
121 0 220 3 220 8 0 4 -9 83 -20 177 -11 94 -20 173 -20 178 0 4 -18 7 -40 7
-33 0 -40 3 -40 20 0 74 -83 122 -149 86z m104 -31 c14 -13 25 -36 25 -50 0
-25 -1 -25 -80 -25 -79 0 -80 0 -80 25 0 36 42 75 80 75 19 0 40 -9 55 -25z
m-157 -122 c-2 -20 2 -28 12 -28 10 0 14 8 12 28 l-3 27 81 0 81 0 -3 -27 c-2
-20 2 -28 12 -28 10 0 14 8 12 28 -2 24 0 27 27 27 34 0 34 2 51 -165 6 -55
13 -115 16 -132 l5 -33 -201 0 -201 0 5 32 c3 18 10 78 16 133 17 167 17 165
51 165 27 0 29 -3 27 -27z"/>
</g>
</svg>
